# xmcd
#
# Track frame offsets:
#	150
#	18581
#	37155
#	53925
#	70232
#	87911
#	105430
#	123011
#	140432
#	158557
#	175073
#	193779
#
# Disc length: 2810 seconds
#
# Revision: 0
# Processed by: cddbd v1.5.2PL0 Copyright (c) Steve Scherf et al.
# Submitted via: EasyCDDAExtractor 16.0.9.1
#
DISCID=9c0af80c
DTITLE=Charlie Wilson - love charlie
DYEAR=2005
DGENRE=
TTITLE0=Charlie Wilson - Magic
TTITLE1=Charlie Wilson - Charlie, Last Name Wilson
TTITLE2=Charlie Wilson feat. Twista - So Hot
TTITLE3=Charlie Wilson - Let’s Chill
TTITLE4=Charlie Wilson - No Words
TTITLE5=Charlie Wilson - Floatin’
TTITLE6=Charlie Wilson - Asking Questions
TTITLE7=Charlie Wilson - What If I’m the One
TTITLE8=Charlie Wilson feat. Snoop Dogg - You Got Nerve
TTITLE9=Charlie Wilson - Thru It All
TTITLE10=Charlie Wilson - My Guarantee
TTITLE11=Charlie Wilson - Cry No More
EXTD=
EXTT0=
EXTT1=
EXTT2=
EXTT3=
EXTT4=
EXTT5=
EXTT6=
EXTT7=
EXTT8=
EXTT9=
EXTT10=
EXTT11=
PLAYORDER=
